<svg xmlns="http://www.w3.org/2000/svg" viewBox="0 0 34.17 34.17"><g id="Layer_2" data-name="Layer 2"><g id="Events_desktop" data-name="Events desktop"><path d="M8.54,0A1.22,1.22,0,0,0,7.32,1.22V3.66H9.76V1.22A1.22,1.22,0,0,0,8.54,0Z"/><path d="M25.63,0a1.22,1.22,0,0,0-1.22,1.22V3.66h2.44V1.22A1.22,1.22,0,0,0,25.63,0Z"/><path d="M30.51,3.66H26.85V8.54a1.22,1.22,0,0,1-2.44,0V3.66H9.76V8.54a1.22,1.22,0,0,1-2.44,0V3.66H3.66A3.66,3.66,0,0,0,0,7.32V30.51a3.66,3.66,0,0,0,3.66,3.66H30.51a3.66,3.66,0,0,0,3.66-3.66V7.32A3.66,3.66,0,0,0,30.51,3.66Zm1.22,26.85a1.22,1.22,0,0,1-1.22,1.22H3.66a1.22,1.22,0,0,1-1.22-1.22V14.64H31.73Z"/><path d="M25.27,17.44a1.23,1.23,0,0,0-1.73,0l-8.9,8.9-4-4A1.22,1.22,0,0,0,8.9,24.05l4.88,4.88a1.22,1.22,0,0,0,1.73,0l9.76-9.76A1.22,1.22,0,0,0,25.27,17.44Z"/></g></g></svg>