<svg xmlns="http://www.w3.org/2000/svg" viewBox="0 0 462.55 42.54"><defs><style>.cls-1{font-size:15px;fill:#f1f1f1;font-family:Roboto-Regular, Roboto;}.cls-2{letter-spacing:-0.01em;}.cls-3{letter-spacing:-0.04em;}.cls-4{letter-spacing:-0.01em;}.cls-5{letter-spacing:-0.04em;}.cls-6{letter-spacing:-0.01em;}.cls-7{font-size:21px;font-family:Roboto-Bold, Roboto;font-weight:700;}.cls-8{letter-spacing:-0.06em;}.cls-9{letter-spacing:0.01em;}.cls-10{fill:#fff;}</style></defs><g id="Layer_2" data-name="Layer 2"><g id="Events_desktop" data-name="Events desktop"><text class="cls-1" transform="translate(46.87 13.85)">PHILIPPINE INST<tspan class="cls-2" x="114.95" y="0">I</tspan><tspan x="118.81" y="0">TUTE OF CE</tspan><tspan class="cls-3" x="199.28" y="0">R</tspan><tspan x="207.93" y="0">TIFIED PUBLIC </tspan><tspan class="cls-4" x="309.57" y="0">A</tspan><tspan x="319.27" y="0">CCOU</tspan><tspan class="cls-2" x="358.84" y="0">N</tspan><tspan class="cls-5" x="369.32" y="0">T</tspan><tspan x="377.69" y="0">A</tspan><tspan class="cls-2" x="387.47" y="0">N</tspan><tspan class="cls-6" x="397.95" y="0">T</tspan><tspan x="406.79" y="0">S</tspan><tspan class="cls-7"><tspan x="0" y="23">ORIE</tspan><tspan class="cls-2" x="45.83" y="23">N</tspan><tspan class="cls-8" x="60.36" y="23">T</tspan><tspan x="72.13" y="23">AL MINDORO C</tspan><tspan class="cls-9" x="217.22" y="23">H</tspan><tspan x="232.24" y="23">APTER</tspan></tspan></text><path id="picpa-logo" class="cls-10" d="M21.22,13.19H15.9L9.37,23.25,15.9,33.32h5.32L14.69,23.25Zm-6.24,0H9.66L3.12,23.25,9.66,33.32H15L8.44,23.25Zm13.82,0L22.27,23.25h5.32l6.53-10.06L27.59,3.12H22.27Zm0,0L22.27,23.25h5.32l6.53-10.06L27.59,3.12H22.27Zm-6.24,0L16,23.25h5.31l6.54-10.06L21.34,3.12H16ZM33.23,0H4A4,4,0,0,0,0,4V32.43a4,4,0,0,0,4,4H33.23a4,4,0,0,0,4-4V4A4,4,0,0,0,33.23,0Zm3.12,32.43a3.12,3.12,0,0,1-3.12,3.12H4A3.12,3.12,0,0,1,.89,32.43V4A3.12,3.12,0,0,1,4,.89H33.23A3.12,3.12,0,0,1,36.35,4Z"/></g></g></svg>